<?xml version="1.0" standalone="no"?>
<!DOCTYPE svg PUBLIC "-//W3C//DTD SVG 20010904//EN"
 "http://www.w3.org/TR/2001/REC-SVG-20010904/DTD/svg10.dtd">
<svg version="1.0" xmlns="http://www.w3.org/2000/svg"
 width="1216.000000pt" height="1216.000000pt" viewBox="0 0 1216.000000 1216.000000"
 preserveAspectRatio="xMidYMid meet">
<metadata>
Created by potrace 1.14, written by Peter Selinger 2001-2017
</metadata>
<g transform="translate(0.000000,1216.000000) scale(0.100000,-0.100000)"
fill="#000000" stroke="none">
<path d="M4102 9355 c-45 -20 -256 -227 -351 -345 -42 -52 -144 -195 -226
-319 -149 -223 -151 -224 -195 -235 -38 -9 -45 -15 -45 -36 0 -16 7 -26 22
-30 21 -5 21 -6 -14 -65 -48 -80 -123 -245 -123 -271 0 -24 39 -64 63 -64 43
0 128 112 254 335 22 40 50 75 63 82 14 6 80 14 148 18 140 9 134 13 101 -81
-12 -33 -23 -96 -26 -144 -5 -77 -3 -88 17 -112 34 -43 71 -38 128 18 47 45
47 46 17 40 -16 -3 -40 -8 -52 -12 -28 -8 -30 10 -7 86 20 69 170 427 273 654
80 174 131 322 131 375 -1 78 -103 139 -178 106z m24 -232 c-4 -14 -43 -107
-87 -207 -44 -100 -106 -241 -137 -313 l-57 -133 -132 0 -133 0 67 108 c177
287 229 358 352 485 61 62 92 87 109 87 21 0 23 -3 18 -27z"/>
<path d="M6951 9348 c-57 -28 -253 -223 -360 -358 -46 -58 -147 -201 -224
-318 -136 -205 -142 -213 -179 -218 -21 -4 -43 -13 -49 -20 -16 -19 -4 -44 22
-44 11 0 19 -3 17 -8 -1 -4 -33 -66 -69 -137 -37 -72 -72 -147 -79 -168 -11
-35 -10 -41 11 -63 61 -64 125 -2 276 267 29 53 62 104 73 114 15 13 49 20
150 28 72 5 132 8 135 6 2 -3 -7 -43 -21 -89 -36 -124 -41 -206 -15 -247 30
-48 74 -46 132 6 51 45 46 61 -10 39 -22 -9 -42 -14 -44 -12 -19 19 118 380
256 677 l46 97 54 0 c29 0 56 -2 59 -5 3 -3 -25 -66 -62 -139 -72 -141 -90
-201 -90 -294 0 -93 54 -158 130 -156 40 1 132 43 167 76 l23 21 42 -48 c24
-26 57 -80 74 -119 62 -146 163 -273 332 -419 163 -141 219 -195 296 -287 73
-88 142 -187 134 -195 -4 -5 -406 -223 -521 -284 -65 -34 -69 -35 -80 -17 -91
146 -259 337 -391 445 -174 143 -420 278 -626 345 -178 58 -288 71 -585 71
-294 -1 -376 -11 -555 -71 -562 -187 -1016 -642 -1200 -1202 -35 -107 -56
-208 -75 -353 l-6 -47 -92 -32 c-133 -45 -307 -131 -419 -206 -455 -303 -647
-802 -495 -1285 l23 -74 -158 -86 c-234 -127 -216 -128 36 -2 70 35 129 63
131 61 2 -2 22 -39 45 -83 121 -230 326 -428 568 -549 216 -108 512 -166 772
-150 l115 7 -47 -50 c-69 -74 -88 -119 -88 -203 0 -106 21 -141 186 -311 142
-145 184 -204 184 -255 0 -62 -81 -154 -180 -204 -59 -30 -150 -61 -161 -54
-5 3 0 28 11 57 26 68 25 70 -10 52 -37 -19 -70 -70 -70 -108 0 -36 41 -74 87
-83 137 -26 366 92 435 225 68 129 20 259 -169 465 -158 170 -173 215 -98 295
71 75 215 141 405 186 78 18 262 20 289 3 14 -9 26 -8 50 2 37 15 55 43 46 71
-11 34 -67 91 -108 109 l-37 17 42 19 c24 10 99 48 168 85 l125 67 124 -11
c310 -27 658 44 976 197 195 93 266 146 471 351 178 177 258 275 315 387 16
31 32 59 37 62 15 9 175 -24 241 -51 117 -46 221 -113 306 -198 134 -134 180
-249 173 -435 -5 -128 -40 -238 -113 -357 -66 -107 -243 -281 -357 -352 -217
-133 -463 -201 -723 -201 -115 0 -127 7 -81 48 42 37 166 121 214 146 32 16
35 16 53 0 17 -16 21 -15 66 7 39 20 51 32 62 65 13 37 13 45 -1 67 -22 33
-98 67 -152 67 -90 0 -211 -76 -376 -236 -63 -62 -124 -114 -135 -116 -11 -2
-21 -12 -24 -23 -2 -10 -33 -53 -69 -94 -70 -81 -153 -202 -197 -291 -50 -99
-65 -157 -65 -250 0 -136 46 -208 167 -262 42 -18 52 -19 102 -8 127 28 260
124 365 263 16 21 27 40 24 43 -3 2 -73 -29 -156 -69 -218 -107 -305 -119
-331 -46 -27 78 -6 163 73 296 66 112 129 196 214 284 l63 67 142 -5 c355 -13
674 93 938 313 191 159 322 382 348 594 37 292 -134 558 -455 706 -78 36 -208
74 -254 74 -15 0 -29 3 -32 6 -3 3 16 58 43 122 91 222 120 375 124 656 l3
189 89 43 c195 94 329 252 394 464 25 81 32 235 16 337 l-9 52 114 57 c140 70
240 135 274 179 34 45 41 95 18 134 -24 41 -61 54 -134 49 -52 -4 -85 -17
-221 -85 l-160 -81 -26 41 c-83 133 -226 285 -440 470 -118 101 -216 219 -273
328 -22 42 -40 82 -40 87 0 6 18 13 39 17 47 8 145 53 206 95 l44 30 7 -22
c11 -37 44 -77 76 -94 27 -14 34 -14 84 2 30 9 76 32 102 50 52 38 62 41 62
20 0 -8 15 -31 34 -50 25 -27 42 -36 65 -36 42 0 99 25 134 58 l28 26 33 -35
c71 -78 187 -57 374 66 94 62 139 101 190 168 35 44 55 60 85 68 21 6 41 9 43
7 2 -2 -21 -55 -51 -118 -66 -138 -69 -168 -21 -216 77 -77 190 -22 338 164
90 113 75 117 -62 17 -89 -66 -159 -105 -185 -105 -8 0 -15 2 -15 4 0 2 21 53
46 112 59 137 65 173 33 203 -13 12 -43 27 -66 33 -41 10 -43 12 -43 48 0 47
-38 78 -79 64 -37 -13 -85 -87 -83 -127 1 -17 3 -48 5 -67 2 -33 -3 -38 -88
-103 -96 -72 -219 -140 -273 -152 -37 -8 -62 7 -62 36 0 16 8 19 53 19 43 0
62 6 93 29 71 51 134 143 134 195 0 63 -100 97 -173 60 -53 -28 -147 -125
-202 -209 -41 -65 -61 -85 -103 -108 -68 -37 -68 -26 0 117 34 73 52 123 52
150 1 38 -2 42 -38 60 l-39 19 -22 -25 c-12 -14 -45 -69 -73 -121 -32 -58 -67
-108 -89 -127 -50 -41 -161 -96 -172 -84 -5 5 -7 32 -4 59 5 50 6 52 59 79 67
35 195 160 275 269 34 45 64 83 68 85 4 1 13 -9 19 -23 9 -19 19 -25 45 -25
38 0 62 21 72 62 9 34 -34 83 -64 73 -18 -5 -18 -5 0 33 11 22 21 63 22 91 2
47 -1 56 -26 77 -17 14 -41 24 -59 24 -42 0 -144 -67 -206 -135 -93 -101 -239
-335 -293 -469 -29 -71 -80 -119 -181 -169 -89 -44 -127 -52 -152 -34 -33 24
-13 47 39 47 59 0 89 16 148 79 53 56 77 104 77 151 0 62 -109 92 -179 49 -18
-11 -35 -18 -37 -16 -6 5 48 87 85 129 27 31 40 38 87 44 63 7 79 22 34 30
-17 4 -29 12 -27 18 2 6 32 33 68 60 65 49 79 70 60 89 -13 13 -65 -21 -152
-98 -36 -32 -68 -54 -77 -50 -7 3 -33 5 -57 5 l-44 0 14 41 c8 23 15 59 15 79
0 33 -5 41 -36 59 -71 42 -116 20 -229 -119 l-58 -71 -46 6 c-86 12 -83 9 -59
68 85 211 77 295 -29 331 -26 9 -47 16 -47 16 -1 0 -21 -10 -45 -22z m39 -202
c0 -9 -77 -192 -169 -401 -56 -126 -106 -239 -111 -251 -7 -19 -19 -21 -131
-27 -68 -4 -127 -3 -131 1 -10 10 176 311 268 436 88 119 216 246 248 246 14
0 26 -2 26 -4z m1246 -139 c-40 -84 -170 -244 -245 -302 -64 -49 -81 -56 -60
-24 9 13 31 51 49 84 66 121 125 202 204 280 71 71 80 77 84 57 2 -12 -12 -55
-32 -95z m-821 21 c-12 -40 -35 -68 -55 -68 -29 0 -25 19 12 57 37 38 52 42
43 11z m70 -206 c-28 -44 -64 -111 -79 -150 -22 -58 -39 -81 -86 -125 -62 -57
-148 -107 -187 -107 -26 0 -26 0 -14 67 9 45 20 59 118 159 60 60 129 137 152
172 l44 62 52 0 53 0 -53 -78z m-193 11 c-27 -32 -60 -67 -72 -78 l-22 -20 15
36 c8 19 26 54 41 77 22 35 32 42 57 42 l31 0 -50 -57z m334 -191 c-26 -51
-123 -118 -143 -98 -16 16 57 101 112 129 38 20 51 7 31 -31z m1026 22 c-6
-33 -49 -79 -96 -104 -25 -14 -48 -21 -53 -17 -14 15 30 76 80 112 54 37 74
40 69 9z m-2347 -1069 c179 -39 409 -139 579 -252 120 -79 326 -280 401 -390
26 -40 47 -74 44 -76 -2 -2 -155 -85 -339 -185 l-336 -181 -97 14 c-286 40
-835 46 -1062 11 -290 -44 -378 -75 -410 -143 -17 -38 -23 -43 -52 -43 -23 0
-33 5 -33 15 0 18 -4 18 -105 1 -44 -8 -141 -20 -217 -27 -124 -11 -139 -11
-162 4 -36 24 -51 81 -37 146 44 204 204 466 415 676 251 251 529 392 866 441
123 17 446 11 545 -11z m2297 -172 c24 -22 23 -58 -4 -83 -33 -30 -279 -153
-287 -143 -12 14 -44 93 -40 97 12 11 286 145 298 145 8 1 23 -6 33 -16z
m-358 -203 c9 -22 16 -45 16 -50 0 -11 -151 -94 -209 -115 -47 -16 -75 -9 -86
24 -13 43 10 66 127 124 62 31 118 57 124 57 7 0 19 -18 28 -40z m53 -177 c4
-21 8 -85 7 -143 -1 -86 -6 -119 -28 -185 -59 -173 -177 -317 -322 -392 -121
-63 -114 -66 -135 59 -20 117 -57 253 -95 349 -13 35 -23 63 -21 65 10 9 565
283 574 283 7 1 16 -16 20 -36z m-817 -470 c40 -112 45 -187 12 -213 -34 -28
-113 -33 -298 -21 -92 6 -169 9 -172 6 -3 -3 -8 -43 -10 -90 l-5 -85 -27 0
-28 0 -5 103 c-2 56 -7 111 -11 122 -6 18 20 34 246 146 139 70 256 125 260
123 3 -2 20 -43 38 -91z m-2414 -419 c2 -176 13 -233 69 -350 24 -49 42 -90
42 -90 -16 -11 -602 -324 -607 -324 -13 0 -81 171 -96 240 -19 93 -7 135 49
161 25 11 65 19 98 19 70 0 242 -31 365 -66 52 -14 97 -24 100 -22 3 3 -4 29
-16 57 -31 80 -70 284 -77 409 l-6 112 39 0 39 0 1 -146z m-907 -419 c19 -113
67 -285 111 -390 22 -54 39 -99 37 -100 -2 -2 -1046 -564 -1084 -584 -21 -11
-23 -8 -43 56 -185 595 163 1166 865 1418 l90 33 6 -182 c4 -99 12 -212 18
-251z m2851 379 c0 -32 -34 -223 -45 -255 -16 -45 -20 -89 -7 -89 4 0 35 9 70
20 129 40 356 44 445 6 20 -8 43 -25 51 -38 15 -22 14 -31 -4 -102 -11 -42
-32 -107 -45 -143 -32 -83 -132 -278 -154 -296 -9 -8 -46 -24 -83 -36 -166
-55 -452 -216 -823 -464 -131 -88 -161 -104 -168 -91 -5 8 -7 85 -5 170 l3
154 -96 0 c-53 0 -163 3 -246 6 l-150 7 -6 -154 c-4 -85 -11 -172 -16 -194
-29 -120 -146 -113 -426 25 -216 107 -399 249 -530 413 -63 78 -150 208 -157
234 -2 8 124 74 316 168 l318 155 57 -45 c124 -95 217 -219 312 -420 l59 -125
315 0 c292 0 316 1 322 18 26 74 151 310 192 364 28 37 96 104 152 150 119 97
188 185 228 289 26 66 34 102 57 247 4 28 9 32 34 32 17 0 30 -3 30 -6z
m-2587 -1056 c150 -225 371 -442 604 -592 156 -100 380 -195 541 -227 34 -7
62 -16 62 -20 0 -5 -73 -44 -162 -89 -136 -67 -176 -83 -237 -91 -107 -15
-248 -53 -349 -95 -145 -60 -156 -63 -294 -73 -282 -20 -543 25 -765 130 -197
94 -385 254 -498 424 -60 90 -112 191 -104 199 6 6 1112 544 1120 545 4 1 41
-50 82 -111z m2828 55 c-20 -36 -150 -176 -222 -240 -151 -133 -350 -247 -545
-312 -100 -34 -159 -39 -190 -17 -10 8 -17 16 -14 19 24 22 531 350 624 403
117 67 319 163 344 164 9 0 10 -5 3 -17z"/>
<path d="M5030 9094 c-38 -36 -81 -83 -96 -105 l-26 -39 -72 6 c-55 5 -76 2
-91 -9 -26 -20 -11 -36 41 -43 90 -12 87 -5 38 -91 -24 -43 -61 -118 -81 -166
-40 -96 -80 -141 -177 -193 l-49 -27 6 35 c3 19 24 78 46 131 23 53 41 105 41
116 0 16 -46 61 -63 61 -3 0 -28 -31 -57 -70 -28 -38 -77 -93 -108 -121 -56
-51 -142 -112 -149 -105 -2 2 25 61 59 131 l62 127 -29 24 c-17 13 -35 24 -41
24 -16 0 -78 -70 -119 -135 -73 -113 -95 -217 -61 -282 31 -60 89 -54 200 22
l64 44 13 -31 c7 -17 23 -44 37 -59 46 -56 126 -32 222 65 55 57 70 58 70 9 0
-28 51 -87 89 -103 38 -15 109 6 180 55 l48 33 31 -43 c18 -25 42 -47 57 -51
66 -17 154 33 213 120 l32 49 63 1 c50 1 78 9 130 34 57 28 127 91 127 113 0
4 -54 -11 -121 -34 l-121 -42 -19 24 c-10 13 -19 34 -19 48 0 67 -65 133 -130
133 -26 0 -41 -10 -83 -57 -115 -126 -185 -190 -243 -221 -34 -17 -72 -32 -84
-32 -22 0 -22 3 -16 55 6 54 9 58 104 153 53 53 123 131 154 173 l57 76 141 5
c77 3 144 8 147 12 16 16 -22 28 -131 38 -99 10 -116 14 -110 28 4 8 9 43 12
77 4 61 4 62 -29 82 -58 36 -83 29 -159 -45z m110 -59 c0 -34 -30 -75 -55 -75
-32 0 -31 8 6 53 32 39 49 47 49 22z m-99 -172 c-12 -16 -41 -50 -67 -78 -36
-40 -44 -45 -39 -25 18 64 70 130 102 130 l24 0 -20 -27z m249 -320 c0 -15
-18 -43 -46 -73 -76 -81 -94 -61 -37 40 38 67 53 82 70 69 7 -6 13 -22 13 -36z"/>
<path d="M5734 3972 c-20 -14 -54 -73 -204 -352 -287 -533 -358 -699 -348
-818 4 -48 10 -60 42 -89 40 -37 57 -37 128 -2 41 21 165 165 360 419 69 91
136 174 148 185 l21 19 -5 -24 c-52 -224 -43 -345 29 -417 58 -58 135 -42 231
48 141 134 318 439 404 698 47 141 43 271 -8 283 -9 2 -13 -21 -15 -87 -5
-111 -36 -208 -121 -379 -86 -170 -166 -285 -277 -398 -80 -82 -101 -98 -126
-98 -27 0 -32 4 -38 36 -9 53 2 128 51 336 24 103 44 191 44 197 0 20 -40 51
-64 51 -26 0 -36 -10 -236 -245 -117 -138 -370 -408 -377 -402 -2 3 102 219
232 481 129 262 235 484 235 495 0 10 -6 23 -12 28 -27 19 -85 41 -94 35z"/>
</g>
</svg>
